<svg width="85" height="30" viewBox="0 0 85 30" fill="none" xmlns="http://www.w3.org/2000/svg">
<path d="M16.2852 21.5391C16.2852 20.4323 15.8945 19.5859 15.1133 19C14.332 18.401 12.9258 17.776 10.8945 17.125C8.86328 16.4609 7.25521 15.8099 6.07031 15.1719C2.84115 13.4271 1.22656 11.0768 1.22656 8.12109C1.22656 6.58464 1.65625 5.21745 2.51562 4.01953C3.38802 2.80859 4.63151 1.86458 6.24609 1.1875C7.8737 0.510417 9.69661 0.171875 11.7148 0.171875C13.7461 0.171875 15.556 0.542969 17.1445 1.28516C18.7331 2.01432 19.9635 3.04948 20.8359 4.39062C21.7214 5.73177 22.1641 7.25521 22.1641 8.96094H16.3047C16.3047 7.65885 15.8945 6.64974 15.0742 5.93359C14.2539 5.20443 13.1016 4.83984 11.6172 4.83984C10.1849 4.83984 9.07161 5.14583 8.27734 5.75781C7.48307 6.35677 7.08594 7.15104 7.08594 8.14062C7.08594 9.0651 7.54818 9.83984 8.47266 10.4648C9.41016 11.0898 10.7839 11.6758 12.5938 12.2227C15.9271 13.2253 18.3555 14.4688 19.8789 15.9531C21.4023 17.4375 22.1641 19.2865 22.1641 21.5C22.1641 23.9609 21.2331 25.8945 19.3711 27.3008C17.5091 28.694 15.0026 29.3906 11.8516 29.3906C9.66406 29.3906 7.67188 28.9935 5.875 28.1992C4.07812 27.3919 2.70443 26.2917 1.75391 24.8984C0.816406 23.5052 0.347656 21.8906 0.347656 20.0547H6.22656C6.22656 23.1927 8.10156 24.7617 11.8516 24.7617C13.2448 24.7617 14.332 24.4818 15.1133 23.9219C15.8945 23.349 16.2852 22.5547 16.2852 21.5391ZM49.5078 15.4258C49.5078 18.2253 49.013 20.6797 48.0234 22.7891C47.0339 24.8984 45.6146 26.526 43.7656 27.6719C41.9297 28.8177 39.8203 29.3906 37.4375 29.3906C35.0807 29.3906 32.9779 28.8242 31.1289 27.6914C29.2799 26.5586 27.8477 24.944 26.832 22.8477C25.8164 20.7383 25.3021 18.3164 25.2891 15.582V14.1758C25.2891 11.3763 25.7904 8.91536 26.793 6.79297C27.8086 4.65755 29.2344 3.02344 31.0703 1.89062C32.9193 0.744792 35.0286 0.171875 37.3984 0.171875C39.7682 0.171875 41.8711 0.744792 43.707 1.89062C45.556 3.02344 46.9818 4.65755 47.9844 6.79297C49 8.91536 49.5078 11.3698 49.5078 14.1562V15.4258ZM43.5703 14.1367C43.5703 11.1549 43.0365 8.88932 41.9688 7.33984C40.901 5.79036 39.3776 5.01562 37.3984 5.01562C35.4323 5.01562 33.9154 5.78385 32.8477 7.32031C31.7799 8.84375 31.2396 11.0833 31.2266 14.0391V15.4258C31.2266 18.3294 31.7604 20.582 32.8281 22.1836C33.8958 23.7852 35.4323 24.5859 37.4375 24.5859C39.4036 24.5859 40.9141 23.8177 41.9688 22.2812C43.0234 20.7318 43.5573 18.4792 43.5703 15.5234V14.1367ZM68.5117 21.5391C68.5117 20.4323 68.1211 19.5859 67.3398 19C66.5586 18.401 65.1523 17.776 63.1211 17.125C61.0898 16.4609 59.4818 15.8099 58.2969 15.1719C55.0677 13.4271 53.4531 11.0768 53.4531 8.12109C53.4531 6.58464 53.8828 5.21745 54.7422 4.01953C55.6146 2.80859 56.8581 1.86458 58.4727 1.1875C60.1003 0.510417 61.9232 0.171875 63.9414 0.171875C65.9727 0.171875 67.7826 0.542969 69.3711 1.28516C70.9596 2.01432 72.1901 3.04948 73.0625 4.39062C73.9479 5.73177 74.3906 7.25521 74.3906 8.96094H68.5312C68.5312 7.65885 68.1211 6.64974 67.3008 5.93359C66.4805 5.20443 65.3281 4.83984 63.8438 4.83984C62.4115 4.83984 61.2982 5.14583 60.5039 5.75781C59.7096 6.35677 59.3125 7.15104 59.3125 8.14062C59.3125 9.0651 59.7747 9.83984 60.6992 10.4648C61.6367 11.0898 63.0104 11.6758 64.8203 12.2227C68.1536 13.2253 70.582 14.4688 72.1055 15.9531C73.6289 17.4375 74.3906 19.2865 74.3906 21.5C74.3906 23.9609 73.4596 25.8945 71.5977 27.3008C69.7357 28.694 67.2292 29.3906 64.0781 29.3906C61.8906 29.3906 59.8984 28.9935 58.1016 28.1992C56.3047 27.3919 54.931 26.2917 53.9805 24.8984C53.043 23.5052 52.5742 21.8906 52.5742 20.0547H58.4531C58.4531 23.1927 60.3281 24.7617 64.0781 24.7617C65.4714 24.7617 66.5586 24.4818 67.3398 23.9219C68.1211 23.349 68.5117 22.5547 68.5117 21.5391ZM84.6055 29H78.7461V0.5625H84.6055V29Z" fill="black"/>
</svg>
